<?xml version="1.0" encoding="utf-8"?>
<!-- Generator: Adobe Illustrator 23.1.0, SVG Export Plug-In . SVG Version: 6.00 Build 0)  -->
<svg version="1.1" id="Capa_1" xmlns="http://www.w3.org/2000/svg" xmlns:xlink="http://www.w3.org/1999/xlink" x="0px" y="0px"
	 viewBox="0 0 300 30.9" style="enable-background:new 0 0 300 30.9;" xml:space="preserve">
<style type="text/css">
	.st0{fill:#7CCCC3;}
</style>
<path class="st0" d="M158.5,0H137H0l0,0v6.7v10.2c0,2.6,2.1,4.7,4.7,4.7s4.7-2.1,4.7-4.7v-4.1c0-3.3,2.7-6.1,6.1-6.1
	s6.1,2.7,6.1,6.1v6.8c0,4.5,3.5,8.3,8,8.4c4.7,0.1,8.5-3.6,8.5-8.2v-3.1c0-5.5,4.4-9.9,9.9-9.9s9.9,4.4,9.9,9.9v1.8
	c0,2.4,1.9,4.5,4.3,4.7c2.6,0.1,4.7-1.9,4.7-4.5v-4.5c0-4.1,3.3-7.4,7.4-7.4H81c4.1,0,7.4,3.3,7.4,7.4l0,0c0,4.5,3.5,8.3,8,8.4
	c4.7,0.1,8.5-3.6,8.5-8.2v-3.9c0-2,1.6-3.7,3.7-3.7s3.7,1.6,3.7,3.7v10.8c0,4.5,3.5,8.3,8,8.4c4.7,0.1,8.5-3.6,8.5-8.2v-6.3
	c0-4.6,3.7-8.4,8.4-8.4s8.4,3.7,8.4,8.4v8c0,2.4,1.9,4.5,4.3,4.7c0.1,0,0.2,0,0.3,0s0.2,0,0.3,0c2.4-0.1,4.3-2.2,4.3-4.7v-8
	c0-4.6,3.7-8.4,8.4-8.4s8.4,3.7,8.4,8.4v5.3c0,4.6,3.8,8.4,8.5,8.2c4.5-0.1,8-3.9,8-8.4v-9.8c0-2,1.6-3.7,3.7-3.7
	c2,0,3.7,1.6,3.7,3.7v3.9c0,4.6,3.8,8.4,8.5,8.2c4.5-0.1,8-3.9,8-8.4l0,0c0-4.1,3.3-7.4,7.4-7.4h6.8c4.1,0,7.4,3.3,7.4,7.4v4.5
	c0,2.6,2.1,4.6,4.7,4.5c2.4-0.1,4.3-2.2,4.3-4.7v-1.8c0-5.5,4.4-9.9,9.9-9.9c5.5,0,9.9,4.4,9.9,9.9v4.1c0,4.6,3.8,8.4,8.5,8.2
	c4.5-0.1,8-3.9,8-8.4v-7.8c0-3.3,2.7-6.1,6.1-6.1c3.3,0,6.1,2.7,6.1,6.1v4.1c0,2.6,2.1,4.7,4.7,4.7s4.7-2.1,4.7-4.7V6.7V0l0,0H158.5
	z"/>
</svg>
