<?xml version="1.0" encoding="utf-8"?>
<!-- Generator: Adobe Illustrator 23.0.5, SVG Export Plug-In . SVG Version: 6.00 Build 0)  -->
<svg version="1.1" id="Capa_1" xmlns="http://www.w3.org/2000/svg" xmlns:xlink="http://www.w3.org/1999/xlink" x="0px" y="0px"
	 viewBox="0 0 1920 1080" style="enable-background:new 0 0 1920 1080;" xml:space="preserve">
<style type="text/css">
	.st0{fill:#7972D9;}
</style>
<path class="st0" d="M1920,743.7V587.24c-211.62,29.43-538.63,36.51-864.76-107.43c391.28,11.07,696.1-132.46,864.76-237.16V25.03
	c-128.07,124.61-421.83,357.45-866.82,405.68C1278.03,307.44,1420.4,144.32,1509.39,0h-165.6
	c-65.24,130.39-166.98,269.86-325.62,391.45c65.62-136.68,91.01-270.3,93.82-391.45H984.45c16.68,114.27,14.67,241.48-21.63,376.19
	C922.57,227.68,849.32,102.58,766.09,0H586.43c127.12,100.64,251.28,235.78,331.23,413.09C575.32,226.78,212.69,224.6,0,246.1
	v156.92c207.72-45.11,529.28-75.88,866.26,40.65C447.67,464.69,147.38,654.55,0,771.78v263.46
	c52.41-74.93,332.41-440.36,873.72-542.86C602.9,673.12,475.53,908.94,415.96,1080h174.73c38.78-166.72,127.14-371.13,322.22-551.27
	C839.93,733.66,850.56,925.57,888,1080h159.18c-65.14-146.67-109.98-331.76-77.49-540.41c100.02,256.53,295.14,431.71,458.39,540.41
	h384.12c-165.32-48.09-565.87-197.23-788.58-558.95C1350.5,727.8,1714.44,751.04,1920,743.7z"/>
</svg>
