<?xml version="1.0" encoding="utf-8"?>
<!-- Generator: Adobe Illustrator 23.0.5, SVG Export Plug-In . SVG Version: 6.00 Build 0)  -->
<svg version="1.1" id="Capa_1" xmlns="http://www.w3.org/2000/svg" xmlns:xlink="http://www.w3.org/1999/xlink" x="0px" y="0px"
	 viewBox="0 0 2854 198" style="enable-background:new 0 0 2854 198;" xml:space="preserve">
<style type="text/css">
	.st0{fill:#7972D9;}
</style>
<path class="st0" d="M2853.21,0.16h-469.55h-30.45h-440h-29.55h-443.25h-27.21H969.96h-29.55h-440h-30.45H0.41L-0.04,39.6v30.73
	v32.94c0,8.38,6.79,15.17,15.17,15.17c8.38,0,15.17-6.79,15.17-15.17V89.91c0-10.82,8.77-19.58,19.58-19.58
	c10.82,0,19.58,8.77,19.58,19.58v41.32c0,14.53,11.39,26.81,25.92,27.21c15.07,0.41,27.42-11.68,27.42-26.66v-29.32
	c0-17.75,14.39-32.14,32.14-32.14c17.75,0,32.14,14.39,32.14,32.14v5.91c0,7.89,6.07,14.68,13.95,15.06
	c8.42,0.4,15.37-6.31,15.37-14.64V94.24c0-13.2,10.7-23.91,23.91-23.91h21.95c13.2,0,23.91,10.7,23.91,23.91l0,0
	c0,14.53,11.39,26.81,25.92,27.21c15.07,0.41,27.42-11.68,27.42-26.66V82.16c0-6.53,5.3-11.83,11.83-11.83
	c6.53,0,11.83,5.3,11.83,11.83v51.1c0,14.53,11.39,26.81,25.92,27.21c15.07,0.41,27.42-11.68,27.42-26.66V97.4
	c0-14.95,12.12-27.07,27.07-27.07c13.77,0,25.12,10.28,26.84,23.58v29.88c0,7.91,6.28,14.35,14.12,14.64c0.02,0,0.04,0,0.06,0.01
	c0.2,0.01,0.39,0,0.59,0c0.2,0,0.39,0.01,0.59,0c0.02,0,0.04,0,0.06-0.01c7.84-0.28,14.12-6.72,14.12-14.64V93.91
	c1.71-13.3,13.07-23.58,26.84-23.58c14.95,0,27.07,12.12,27.07,27.07v36.42c0,14.98,12.35,27.07,27.42,26.66
	c14.53-0.4,25.92-12.68,25.92-27.21v-51.1c0-6.53,5.3-11.83,11.83-11.83c6.53,0,11.83,5.3,11.83,11.83v12.63
	c0,14.98,12.35,27.07,27.42,26.66c14.53-0.4,25.92-12.68,25.92-27.21l0,0c0-13.2,10.7-23.91,23.91-23.91h21.95
	c13.2,0,23.91,10.7,23.91,23.91v14.56c0,8.33,6.95,15.04,15.37,14.64c7.88-0.37,13.95-7.16,13.95-15.06v-5.91
	c0-17.75,14.39-32.14,32.14-32.14s32.14,14.39,32.14,32.14v29.32c0,14.98,12.35,27.07,27.42,26.66
	c14.53-0.4,25.92-12.68,25.92-27.21V89.91c0-10.82,8.77-19.58,19.58-19.58c10.1,0,18.41,7.65,19.46,17.47v15.47
	c0,8.38,6.79,15.17,15.17,15.17c0.02,0,0.04,0,0.06,0c0.02,0,0.04,0,0.06,0c8.38,0,15.17-6.79,15.17-15.17V87.8
	c1.06-9.82,9.36-17.47,19.47-17.47c10.82,0,19.58,8.77,19.58,19.58v41.32c0,14.53,11.39,26.81,25.92,27.21
	c15.07,0.41,27.42-11.68,27.42-26.66v-29.32c0-17.75,14.39-32.14,32.14-32.14c17.75,0,32.14,14.39,32.14,32.14v5.91
	c0,7.89,6.07,14.68,13.95,15.06c8.42,0.4,15.37-6.31,15.37-14.64V94.24c0-13.2,10.7-23.91,23.91-23.91h21.95
	c13.2,0,23.91,10.7,23.91,23.91l0,0c0,14.53,11.39,26.81,25.92,27.21c15.07,0.41,27.42-11.68,27.42-26.66V82.16
	c0-6.53,5.3-11.83,11.83-11.83c6.53,0,11.83,5.3,11.83,11.83v51.1c0,14.53,11.39,26.81,25.92,27.21
	c15.07,0.41,27.42-11.68,27.42-26.66V97.4c0-14.95,12.12-27.07,27.07-27.07s27.07,12.12,27.07,27.07v25.97
	c0,7.89,6.07,14.68,13.95,15.06c0.75,0.04,1.49,0,2.22-0.08c0.73,0.07,1.46,0.11,2.22,0.08c7.88-0.37,13.95-7.16,13.95-15.06V97.4
	c0-14.95,12.12-27.07,27.07-27.07c14.95,0,27.07,12.12,27.07,27.07v36.42c0,14.98,12.35,27.07,27.42,26.66
	c14.53-0.4,25.92-12.68,25.92-27.21v-51.1c0-6.53,5.3-11.83,11.83-11.83s11.83,5.3,11.83,11.83v12.63
	c0,14.98,12.35,27.07,27.42,26.66c14.53-0.4,25.92-12.68,25.92-27.21l0,0c0-13.2,10.7-23.91,23.91-23.91h21.95
	c13.2,0,23.91,10.7,23.91,23.91v14.56c0,8.33,6.95,15.04,15.37,14.64c7.88-0.37,13.95-7.16,13.95-15.06v-5.91
	c0-17.75,14.39-32.14,32.14-32.14c17.75,0,32.14,14.39,32.14,32.14v29.32c0,14.98,12.35,27.07,27.42,26.66
	c14.53-0.4,25.92-12.68,25.92-27.21V89.91c0-10.82,8.77-19.58,19.58-19.58c10.1,0,18.41,7.65,19.47,17.47v15.47
	c0,8.38,6.79,15.17,15.17,15.17c0.02,0,0.04,0,0.06,0s0.04,0,0.06,0c8.38,0,15.17-6.79,15.17-15.17V87.8
	c1.06-9.82,9.36-17.47,19.46-17.47c10.82,0,19.58,8.77,19.58,19.58v41.32c0,14.53,11.39,26.81,25.92,27.21
	c15.07,0.41,27.42-11.68,27.42-26.66v-29.32c0-17.75,14.39-32.14,32.14-32.14c17.75,0,32.14,14.39,32.14,32.14v5.91
	c0,7.89,6.07,14.68,13.95,15.06c8.42,0.4,15.37-6.31,15.37-14.64V94.24c0-13.2,10.7-23.91,23.91-23.91h21.95
	c13.2,0,23.91,10.7,23.91,23.91l0,0c0,14.53,11.39,26.81,25.92,27.21c15.07,0.41,27.42-11.68,27.42-26.66V82.16
	c0-6.53,5.3-11.83,11.83-11.83s11.83,5.3,11.83,11.83v51.1c0,14.53,11.39,26.81,25.92,27.21c15.07,0.41,27.42-11.68,27.42-26.66
	V97.4c0-14.95,12.12-27.07,27.07-27.07c13.77,0,25.12,10.28,26.84,23.58v29.88c0,7.91,6.28,14.35,14.12,14.64
	c0.02,0,0.04,0,0.06,0.01c0.2,0.01,0.39,0,0.59,0c0.2,0,0.39,0.01,0.59,0c0.02,0,0.04,0,0.06-0.01c7.84-0.28,14.12-6.72,14.12-14.64
	V93.91c1.71-13.3,13.07-23.58,26.84-23.58c14.95,0,27.07,12.12,27.07,27.07v36.42c0,14.98,12.35,27.07,27.42,26.66
	c14.53-0.4,25.92-12.68,25.92-27.21v-51.1c0-6.53,5.3-11.83,11.83-11.83s11.83,5.3,11.83,11.83v12.63
	c0,14.98,12.35,27.07,27.42,26.66c14.53-0.4,25.92-12.68,25.92-27.21l0,0c0-13.2,10.7-23.91,23.91-23.91h21.95
	c13.2,0,23.91,10.7,23.91,23.91v14.56c0,8.33,6.95,15.04,15.37,14.64c7.88-0.37,13.95-7.16,13.95-15.06v-5.91
	c0-17.75,14.39-32.14,32.14-32.14s32.14,14.39,32.14,32.14v29.32c0,14.98,12.35,27.07,27.42,26.66
	c14.53-0.4,25.92-12.68,25.92-27.21V89.91c0-10.82,8.77-19.58,19.58-19.58c10.82,0,19.58,8.77,19.58,19.58v13.35
	c0,8.38,6.79,15.17,15.17,15.17s15.17-6.79,15.17-15.17V70.33V39.6L2853.21,0.16z"/>
</svg>
