<?xml version="1.0" encoding="utf-8"?>
<!-- Generator: Adobe Illustrator 23.0.5, SVG Export Plug-In . SVG Version: 6.00 Build 0)  -->
<svg version="1.1" id="Capa_1" xmlns="http://www.w3.org/2000/svg" xmlns:xlink="http://www.w3.org/1999/xlink" x="0px" y="0px"
	 viewBox="0 0 501 198" style="enable-background:new 0 0 501 198;" xml:space="preserve">
<style type="text/css">
	.st0{fill:#7972D9;}
</style>
<path class="st0" d="M0.79-0.25L0.33,39.19v30.73v32.94c0,8.38,6.79,15.17,15.17,15.17l0,0c8.38,0,15.17-6.79,15.17-15.17V89.51
	c0-10.82,8.77-19.58,19.58-19.58l0,0c10.82,0,19.58,8.77,19.58,19.58v41.32c0,14.53,11.39,26.81,25.92,27.21
	c15.07,0.41,27.42-11.68,27.42-26.66v-29.32c0-17.75,14.39-32.14,32.14-32.14l0,0c17.75,0,32.14,14.39,32.14,32.14v5.91
	c0,7.89,6.07,14.68,13.95,15.06c8.42,0.4,15.37-6.31,15.37-14.64V93.83c0-13.2,10.7-23.91,23.91-23.91h21.95
	c13.2,0,23.91,10.7,23.91,23.91v0c0,14.53,11.39,26.81,25.92,27.21c15.07,0.41,27.42-11.68,27.42-26.66V81.75
	c0-6.53,5.3-11.83,11.83-11.83l0,0c6.53,0,11.83,5.3,11.83,11.83v51.1c0,14.53,11.39,26.81,25.92,27.21
	c15.07,0.41,27.42-11.68,27.42-26.66V96.99c0-14.95,12.12-27.07,27.07-27.07l0,0c14.95,0,27.07,12.12,27.07,27.07v25.97
	c0,7.89,6.07,14.68,13.95,15.06c8.42,0.4,15.37-6.31,15.37-14.64V69.92V19.18l0.45-19.43H0.79z"/>
</svg>
