<?xml version="1.0" encoding="utf-8"?>
<!-- Generator: Adobe Illustrator 23.1.0, SVG Export Plug-In . SVG Version: 6.00 Build 0)  -->
<svg version="1.1" id="Capa_1" xmlns="http://www.w3.org/2000/svg" xmlns:xlink="http://www.w3.org/1999/xlink" x="0px" y="0px"
	 viewBox="0 0 200 236" style="enable-background:new 0 0 200 236;" xml:space="preserve">
<style type="text/css">
	.st0{fill:#7CCCC3;}
</style>
<path class="st0" d="M200,235.6V48.8V36.5V23.3c0-3.4-2.7-6.1-6.1-6.1l0,0c-3.4,0-6.1,2.7-6.1,6.1v5.3c0,4.3-3.5,7.8-7.8,7.8l0,0
	c-4.3,0-7.8-3.5-7.8-7.8V12.1c0-5.8-4.6-10.7-10.4-10.9c-6-0.2-11,4.7-11,10.7v11.7c0,7.1-5.8,12.9-12.9,12.9l0,0
	c-7.1,0-12.9-5.8-12.9-12.9v-2.4c0-3.2-2.4-5.9-5.6-6c-3.4-0.2-6.1,2.5-6.1,5.9v5.8c0,5.3-4.3,9.6-9.6,9.6h-8.8
	c-5.3,0-9.6-4.3-9.6-9.6v0c0-5.8-4.6-10.7-10.4-10.9c-6-0.2-11,4.7-11,10.7v5.1c0,2.6-2.1,4.7-4.7,4.7l0,0c-2.6,0-4.7-2.1-4.7-4.7
	V11.3c0-5.8-4.6-10.7-10.4-10.9c-6-0.2-11,4.7-11,10.7v14.6c0,6-4.8,10.8-10.8,10.8l0,0c-6,0-10.8-4.8-10.8-10.8V15.3
	c0-3.2-2.4-5.9-5.6-6C2.8,9.1,0,11.8,0,15.1v21.4v20.3v178.8L200,235.6z"/>
</svg>
