<?xml version="1.0" encoding="utf-8"?>
<!-- Generator: Adobe Illustrator 23.1.0, SVG Export Plug-In . SVG Version: 6.00 Build 0)  -->
<svg version="1.1" id="Capa_1" xmlns="http://www.w3.org/2000/svg" xmlns:xlink="http://www.w3.org/1999/xlink" x="0px" y="0px"
	 viewBox="0 0 603 540" style="enable-background:new 0 0 603 540;" xml:space="preserve">
<style type="text/css">
	.st0{fill:#FFFFFF;stroke:#FFFFFF;stroke-width:2.5;stroke-miterlimit:10;}
	.st1{opacity:0.4;fill:#477286;}
	.st2{fill:#263D60;}
	.st3{fill:none;stroke:#263D60;stroke-width:3;stroke-miterlimit:10;}
	.st4{fill:#7CCCC3;}
	.st5{fill:#83DDD0;}
	.st6{fill:#83DDD0;stroke:#263D60;stroke-width:3;stroke-miterlimit:10;}
	.st7{fill:#E2B55E;}
	.st8{fill:#C18C42;}
	.st9{opacity:0.49;}
	.st10{fill:#A5672E;}
	.st11{fill:#CC6983;}
	.st12{fill:#E1758D;}
	.st13{fill:#FFFFFF;stroke:#263D60;stroke-width:3;stroke-miterlimit:10;}
	.st14{fill:#DB97B1;}
	.st15{fill:#7671D6;}
	.st16{fill:#8080E5;}
	.st17{fill:#8A8AED;}
	.st18{fill:#FFFFFF;stroke:#263D60;stroke-width:2.5;stroke-miterlimit:10;}
	.st19{clip-path:url(#SVGID_4_);fill:#263D60;stroke:#263D60;stroke-width:3;stroke-miterlimit:10;}
	.st20{clip-path:url(#SVGID_4_);fill:#9B2034;}
	.st21{clip-path:url(#SVGID_4_);fill:#83172E;}
	.st22{fill:#7A96C0;}
</style>
<g>
	
		<image style="overflow:visible;opacity:0.15;" width="597" height="532" xlink:href="FD813B4F.png"  transform="matrix(1 0 0 1 4 7)">
	</image>
	<g>
		<g>
			<g>
				<g>
					<g>
						<g>
							<g>
								<defs>
									<path id="SVGID_1_" d="M252.7,177.7c-9.4,0.3-18,4.6-23.7,12.2c-0.1,0.1-0.2,0.2-0.3,0.4c-8.9,12.1-29-2.1-19.4-20.5
										c9.5-18.4,32.8-27.3,48.7-19.2C271.9,157.6,270.9,177,252.7,177.7z"/>
								</defs>
								<clipPath id="SVGID_2_">
									<use xlink:href="#SVGID_1_"  style="overflow:visible;"/>
								</clipPath>
							</g>
						</g>
					</g>
				</g>
			</g>
		</g>
		<g>
			<g>
				<path class="st0" d="M219.7,372.2c-7.7,0-18.6-3-30.3-8.4c-11.7,5.4-22.6,8.4-30.3,8.4c0,0,0,0,0,0c-8.7,0-12.6-3.8-14.4-6.9
					c-2.8-4.9-3-13,9.2-24.8c-12.1-11.8-11.9-19.9-9.2-24.8c1.8-3.2,5.7-6.9,14.4-6.9c7.7,0,18.6,3,30.3,8.4
					c11.7-5.4,22.6-8.4,30.3-8.4c8.7,0,12.6,3.8,14.4,6.9c2.8,4.9,3,13-9.2,24.8c12.1,11.8,11.9,19.9,9.2,24.8
					C232.3,368.4,228.4,372.2,219.7,372.2z"/>
				<path class="st0" d="M216.3,532.2c-10.4,0-18-3.5-20.5-9c-11.5-0.5-22.6-1.2-33.4-1.9c-1.3,1.3-2.7,2.3-4.3,3.1
					c-2.7,1.4-5.7,2.2-8.8,2.2c-2.5,0-5-0.5-7.6-1.4c-4.3-1.5-7.3-3.9-9.2-6.2c-19.2-1.7-36.5-3.7-51.6-5.9
					c-2.9,0.8-6.2,1.2-9.7,1.2c-8.4,0-15-2.3-18.6-6.2c-26.5-5.7-39.1-11.9-41.5-20.9c-4.3-3.2-4.9-7.1-4.9-9
					c0-8,8.6-13.3,21.4-13.3c1.5,0,2.9,0.1,4.3,0.2c13.9-4.7,35.3-8.9,63.7-12.4c0.1-10.3,2.4-22.9,10.9-34.7
					c14.6-20.1,42-30.4,81.6-30.7c0.6,0,1.2,0,1.8,0c40.5,0,69,9.9,84.9,29.4c7.1,8.7,10.4,17.9,11.9,25.5c4.7,0,9.4,0,14.1,0
					c69.9,0,136.2,3,187.7,8.5L405,392.1c-2.8,5.6-7.5,10.1-13.8,13.1c-2.4,1.1-5.2,1.7-8.6,1.7c-3.4,0-6.7-0.6-8.4-1.1
					c-14-4.5-22.7-23.2-31-41.2c-0.9-1.9-1.7-3.7-2.6-5.5c-1.7-3.5-3.8-8.1-5.3-10.8c-11-2.9-42-11.2-69.2-34.2
					c-6.2-5.2-11.8-10.9-16.8-16.9c-0.6,0.1-1.2,0.1-1.8,0.1c-2.8,0-5.5-0.6-8-1.7c-14.2-6.3-23.8-24.1-28.6-52.9
					c-1-6-3.7-11.4-7.9-15.6c-24.3-24.4-38.8-50.3-43-77c-3.3-20.6-0.5-41.2,8.2-61.5c15.4-35.7,46.3-62.6,84.9-73.8
					c11.8-3.4,23.7-5.2,35.3-5.2c27.4,0,53.6,9.4,78,27.9C386,52.1,399.3,69.1,405.5,78c0.2,0.3,0.4,0.5,0.5,0.8
					c29.4,9.5,55,27.5,70.5,49.8c19.5,27.8,21.8,59.9,6.7,90.8L592,464.7c4.9,11.1,2.2,23.4-6.8,30.8c-2.6,2.2-5.6,3.7-8.8,4.7
					c-35.1,15.2-145.5,25.3-275.3,25.3c-22,0-43.8-0.3-65.1-0.9C232.8,529.3,225.7,532.2,216.3,532.2z"/>
			</g>
			<g>
				<ellipse class="st1" cx="301.1" cy="483.9" rx="282.3" ry="33.7"/>
				<g>
					<g>
						<g>
							<g>
								<path class="st2" d="M189.1,343.8c0.1,0,0.3,0,0.4,0c0.3,0,0.5,0,0.7-0.2c0.2-0.1,0.4-0.2,0.6-0.4c0.2-0.2,0.3-0.4,0.4-0.6
									c0.1-0.2,0.2-0.5,0.2-0.7c0-0.2,0-0.3-0.1-0.5c-0.1-0.3-0.2-0.6-0.5-0.8c-0.1-0.1-0.3-0.2-0.4-0.3c-0.3-0.2-0.6-0.3-0.9-0.3
									c-0.1,0-0.3,0-0.4,0c-0.3,0-0.5,0-0.7,0.2c-0.2,0.1-0.4,0.2-0.6,0.4c-0.2,0.2-0.3,0.4-0.4,0.6c-0.1,0.2-0.2,0.5-0.2,0.7
									c0,0.2,0,0.3,0.1,0.5c0.1,0.3,0.2,0.6,0.5,0.8c0.1,0.1,0.3,0.2,0.4,0.3C188.5,343.8,188.8,343.8,189.1,343.8L189.1,343.8z"
									/>
							</g>
						</g>
						<g>
							<g>
								<path class="st2" d="M194.1,306.4c2.4,0,2.4-3.8,0-3.8C191.7,302.6,191.7,306.4,194.1,306.4L194.1,306.4z"/>
							</g>
						</g>
						<g>
							<g>
								<path class="st2" d="M239.2,347.9c0.3,0,0.5,0,0.8,0c0.3,0,0.5,0,0.7-0.2c0.2-0.1,0.4-0.2,0.6-0.4c0.2-0.2,0.3-0.4,0.4-0.6
									c0.1-0.2,0.2-0.5,0.2-0.7c0-0.2,0-0.3-0.1-0.5c-0.1-0.3-0.2-0.6-0.5-0.8c-0.1-0.1-0.3-0.2-0.4-0.3c-0.3-0.2-0.6-0.3-0.9-0.3
									c-0.3,0-0.5,0-0.8,0c-0.3,0-0.5,0-0.7,0.2c-0.2,0.1-0.4,0.2-0.6,0.4c-0.2,0.2-0.3,0.4-0.4,0.6c-0.1,0.2-0.2,0.5-0.2,0.7
									c0,0.2,0,0.3,0.1,0.5c0.1,0.3,0.2,0.6,0.5,0.8c0.1,0.1,0.3,0.2,0.4,0.3C238.5,347.8,238.9,347.9,239.2,347.9L239.2,347.9z"
									/>
							</g>
						</g>
						<g>
							<g>
								<path class="st2" d="M191.7,374.3c3.2,0,3.2-5,0-5C188.5,369.3,188.5,374.3,191.7,374.3L191.7,374.3z"/>
							</g>
						</g>
						<g>
							<g>
								<path class="st2" d="M134,343.8c2.4,0,2.4-3.8,0-3.8C131.6,340.1,131.6,343.8,134,343.8L134,343.8z"/>
							</g>
						</g>
						<path class="st3" d="M151.7,319.5c-3.4,6.2,10.6,20.6,31.4,32.2c20.8,11.6,40.5,15.9,43.9,9.7c3.4-6.2-10.6-20.6-31.4-32.2
							C174.8,317.6,155.1,313.3,151.7,319.5z"/>
						<path class="st3" d="M227,319.5c3.4,6.2-10.6,20.6-31.4,32.2c-20.8,11.6-40.5,15.9-43.9,9.7c-3.4-6.2,10.6-20.6,31.4-32.2
							C203.9,317.6,223.6,313.3,227,319.5z"/>
					</g>
					<g>
						<g>
							<g>
								<path class="st4" d="M108.9,468.4c0,0-22-69.2,79.6-70c101.7-0.8,87.9,62.8,87.9,62.8s30.3-6.7,32.4,2.9
									c2.1,9.6-44.9,8.3-44.9,8.3s10.6,4.2,4.4,7.5c-5.7,3.1-22,0.5-24.7,0.1c0,0-0.1,0.1,0,0.1c3.9,1.4,35.8,12.9,17.8,22.2
									c-19.2,9.9-34-21-45.6-18.7c-11.7,2.3-4.7,15.8-15,15.6c-10.4-0.3-10.1-11.4-16.6-10.9c-6.5,0.5-4.1,9.3-9.9,8.8
									c-5.7-0.5-3.6-11.2-9.1-8.3c-5.4,2.9-3.6,31.9-19.7,26.2c-16.1-5.7,5.2-28.5,0.3-31.6c-4.9-3.1-27.2,15-36,9.1
									c-8.8-6,10.9-14,10.9-14s-40.5,12.3-44.2-1.7C72.8,462.5,108.9,468.4,108.9,468.4z"/>
							</g>
							<g>
								<path class="st5" d="M140.5,453.3c9.9-7.1,21.2-11.2,33.2-13c22.3-3.4,45.3,0.3,66.8-7.7c7.2-2.7,16.7-6.9,21.7-13.7
									c-12.3-11.5-34.3-20.9-73.6-20.6c-95.7,0.7-81.8,62.2-79.8,69.3C120.8,471.2,131.5,459.7,140.5,453.3z"/>
							</g>
							<path class="st2" d="M149.4,518.6c-1.5,0-3.2-0.3-4.9-0.9c-3.6-1.3-6-3.4-7.2-6.3c-2.6-6,0.9-13.7,3.7-19.8
								c0.8-1.8,1.9-4.1,2.3-5.6c-2.2,0.5-6.5,2.6-9.5,4c-9,4.3-19.3,9.2-25.8,4.8c-3.3-2.2-3.7-4.8-3.6-6.6
								c0.1-1.2,0.6-2.3,1.3-3.4c-9.4,1.6-20.7,2.5-27.1-1.1c-2.7-1.5-4.4-3.7-5.1-6.4c-1-4,0.4-6.7,1.8-8.2
								c5.6-6.1,21.4-5.2,29.7-4.3c-1.6-8.2-3.2-26.2,8.3-42c13-17.9,38.3-27.1,75.2-27.4c38.8-0.3,65.9,8.6,80.4,26.4
								c11,13.5,11.6,28.4,11,35.6c7.3-1.3,21.8-3.1,28.2,1c1.9,1.2,3.2,2.9,3.6,5c0.4,1.8-0.1,3.6-1.3,5c-4.8,5.8-24.6,6.9-37.6,7
								c0.3,0.6,0.4,1.1,0.5,1.8c0.1,1.2-0.3,3.5-3.5,5.3c-2.3,1.2-5.6,1.7-9.3,1.8c4.9,3,9,6.8,9.3,11c0.3,3.7-2.1,6.9-7.1,9.5
								c-13.2,6.8-24.2-2.8-33.1-10.4c-4.9-4.2-10-8.6-13.3-8c-3.9,0.8-4.7,2.9-5.7,6.7c-1,3.6-2.5,9-10,8.9
								c-7.2-0.2-10.4-4.6-12.7-7.8c-1.8-2.5-2.5-3.2-3.6-3.1c-1.3,0.1-1.7,0.7-2.7,3.1c-0.9,2.2-2.6,6.2-7.6,5.7
								c-4.6-0.4-6.2-4.6-7.1-7.1c-0.1-0.4-0.3-0.9-0.5-1.3c-0.7,1.1-1.7,4.9-2.3,7.5c-1.7,6.7-3.8,15.1-9.7,18.3
								C152.8,518.2,151.2,518.6,149.4,518.6z M149.5,479.2c1.2,0-0.4,9-3,14.8c-2.2,4.8-5.2,11.4-3.7,15c0.6,1.3,1.8,2.3,3.7,3
								c2.1,0.7,3.7,0.8,5.1,0c3.5-1.9,5.3-8.9,6.7-14.5c1.4-5.6,2.5-10,5.6-11.6c1.7-0.9,7.2-2,8.8,4.8c0.5,2.2,1.3,3.1,2,3.2
								c0.5,0.1,0.6,0.1,1.6-2.1c1-2.4,2.7-6.3,7.8-6.7c4.6-0.4,7,2.9,8.9,5.6c2,2.8,3.8,5.2,8,5.3c2.6,0,3-0.6,4-4.5
								c1-3.8,2.6-9.5,10.4-11c6.2-1.2,12.1,3.9,18.4,9.3c8.3,7.2,16.8,14.5,26.4,9.6c2.5-1.3,3.9-2.6,3.8-3.7
								c-0.3-3.3-8.5-10.6-17.8-14.5c-0.9-0.4-3.1-0.9-2.8-1.5c0.5-0.8,2.3-0.3,3.5-0.3c5.2,0,11.2,0.1,15.9-1
								c1.7-0.4,1.9-2.8,0.2-3.5l0,0l-11.1-4.4c-1-0.4-0.7-1.8,0.4-1.8l11.9,0.3c20.4,0.6,39.8-1.6,41.8-4.7
								c-0.1-0.3-0.3-0.7-0.9-1.1c-4.7-3-19.6-1.2-27.9,0.6l-0.1,0c-2.1,0.5-4-1.4-3.5-3.5l0-0.1c0-0.2,3.8-18.9-9.3-35
								c-13.3-16.3-38.7-24.4-75.6-24.1c-34.9,0.3-58.6,8.6-70.4,24.9c-13.4,18.4-6.5,41-6.4,41.2l1.5,4.7l-4.8-0.8
								c-9.8-1.6-25.2-2.1-28.7,1.8c-0.4,0.5-0.8,1.1-0.4,2.6c0.3,1.1,1,2,2.3,2.7c8,4.5,38.8-2.9,39-0.2l0,0
								c-6.2,2.5-11.8,9-9.2,11.5c3.1,3,13-2,19.8-5.3C136.6,481.9,146.2,479.2,149.5,479.2z"/>
						</g>
						<g>
							<g>
								<path class="st2" d="M204.2,434.7L204.2,434.7c-0.7-0.5-0.8-1.5-0.2-2.2c6.4-7.3,14.7-11.4,17.9-12.9c0.8-0.3,1.7,0,2,0.8
									l0,0c0.3,0.7-0.1,1.6-0.8,1.9c-3,1.4-10.9,5.4-16.9,12.1C205.7,435.1,204.8,435.2,204.2,434.7z"/>
							</g>
							<g>
								<path class="st2" d="M222,435c-2.3-4.2-11.7-10.1-18.3-13.6c-0.7-0.4-1-1.3-0.6-2l0,0c0.4-0.7,1.3-1,2-0.7
									c4.3,2.2,16.2,8.9,19.5,14.8c0.5,0.9,0,1.9-0.9,2.2l0,0C223,436,222.3,435.6,222,435z"/>
							</g>
							<g>
								<path class="st2" d="M159,434.7L159,434.7c-0.7-0.5-0.8-1.5-0.2-2.2c6.4-7.3,14.7-11.4,17.9-12.9c0.8-0.3,1.7,0,2,0.8l0,0
									c0.3,0.7-0.1,1.6-0.8,1.9c-3,1.4-10.9,5.4-16.9,12.1C160.5,435.1,159.6,435.2,159,434.7z"/>
							</g>
							<g>
								<path class="st2" d="M176.8,435c-2.3-4.2-11.7-10.1-18.3-13.6c-0.7-0.4-1-1.3-0.6-2l0,0c0.4-0.7,1.3-1,2-0.7
									c4.3,2.2,16.2,8.9,19.5,14.8c0.5,0.9,0,1.9-0.9,2.2l0,0C177.8,436,177.2,435.6,176.8,435z"/>
							</g>
						</g>
						<path class="st2" d="M188.7,436.7c0,1.5,1.3,2.6,2.9,2.6c1.6,0,2.9-1.2,2.9-2.6c0-1.5-1.3-2.6-2.9-2.6
							C190,434.1,188.7,435.2,188.7,436.7z"/>
						<path class="st6" d="M57.9,501c0,2.9,6,5.3,13.4,5.3c7.4,0,13.4-2.4,13.4-5.3c0-2.9-6-5.3-13.4-5.3
							C63.9,495.6,57.9,498,57.9,501z"/>
						<path class="st6" d="M202.9,518.9c0,2.9,6,5.3,13.4,5.3c7.4,0,13.4-2.4,13.4-5.3c0-2.9-6-5.3-13.4-5.3
							C208.9,513.6,202.9,515.9,202.9,518.9z"/>
						<path class="st6" d="M301.6,493.6c0,2.9,6,5.3,13.4,5.3c7.4,0,13.4-2.4,13.4-5.3c0-2.9-6-5.3-13.4-5.3
							C307.6,488.3,301.6,490.6,301.6,493.6z"/>
						<path class="st6" d="M14.4,478.3c0,2.9,6,5.3,13.4,5.3c7.4,0,13.4-2.4,13.4-5.3c0-2.9-6-5.3-13.4-5.3
							C20.4,473,14.4,475.3,14.4,478.3z"/>
					</g>
				</g>
				<g>
					<g>
						<g>
							<path class="st7" d="M308.9,311.4l251.3,175.8c12.8,9,28-3.7,21.6-18L460.7,195.7L308.9,311.4z"/>
						</g>
						<path class="st8" d="M482.1,251.3c-6.6,35.6-24.3,99.3-69.1,131.4c0.2,0.2,0.5,0.3,0.7,0.5c0.8,0.6,1.5,1.1,2.2,1.8
							c0.2,0.2,0.4,0.4,0.6,0.5c30.2-15.1,73.8-50.3,72.2-127.9C486.1,255.9,483.9,253.8,482.1,251.3z"/>
						<path class="st8" d="M518.7,332.7c0.1-2.6,0.1-5.3,0.2-7.9c-5.9,20.7-22.4,68.6-54,96.9c0.9,1,1.8,2.1,2.6,3.3
							c20.3-13.5,45.7-40.4,52.5-91.6C519.6,333.6,518.7,333.3,518.7,332.7z"/>
						<path class="st8" d="M536.1,469.3c11.9-10.1,23.8-27.6,21.4-56.5c-0.4-0.6-0.8-1.3-1.2-1.9c-1-1.5-1.7-3.1-2.4-4.8
							c-0.8,15.1-5.3,39.2-23.8,60.8c0.1,0.1,0.1,0.2,0.2,0.3C532.3,467.7,534.3,468.4,536.1,469.3z"/>
						<path class="st8" d="M513,317.3c-36.3,10.6-108,27.8-154,14.8c0,0,62.5,35.9,155.8-10.4C514.1,320.3,513.5,318.8,513,317.3z"
							/>
						<path class="st8" d="M443,407.1c29-0.4,70.8-5.9,99-30.1c-0.4-0.9-0.8-1.9-1.1-2.9c-15.9,7.9-52.3,23.4-102.4,29.2
							C440.1,404.5,441.6,405.7,443,407.1z"/>
						<path class="st8" d="M571.3,446.2c-19,3.6-45.4,3.2-63.6,2.4c0.9,1,1.7,2,2.4,3.1c0.3,0.1,0.6,0.2,0.9,0.4
							c30.8,4.5,50.4,0.3,61.3-3.7C572,447.7,571.6,446.9,571.3,446.2z"/>
						<g class="st9">
							<path class="st10" d="M581.9,469.2l-38.1-86c-0.5,0.3-1,0.7-1.5,1c-26.6,18.1-59.5,13.2-87.6,1.2c-23.7-10.1-52-28.6-63-53
								c-1.4-3.1-1.3-4.5,0.3-7.4c3.1-5.4,3.8-9.4,4.2-15.5c0.4-6.3,4.7-8.6,10.6-9.2c13.4-1.3,41.1,8.6,38-14.3
								c-0.3-1.9,2.1-4.2,3.8-2.2c8.6,10.3,19.8,20,34.2,18.5c7.9-0.8,15.6-4.6,20.5-10.5l-42.6-96.2L308.9,311.4l251.3,175.8
								C573.1,496.2,588.2,483.6,581.9,469.2z"/>
						</g>
						<path class="st2" d="M569.3,493.3c-3.7,0-7.4-1.2-10.8-3.6L303.8,311.5l158.1-120.6l122.7,277c3.5,7.9,1.7,16.3-4.5,21.4
							C576.9,492,573.2,493.3,569.3,493.3z M314,311.3L562,484.8c5.7,4,11.1,2.6,14.3-0.1c3.1-2.6,5.7-7.8,2.8-14.3L459.5,200.4
							L314,311.3z"/>
					</g>
					<g>
						<g>
							<path class="st11" d="M292.9,129.4c0,0,10.3-39.2,53.9-45.6c70.6-10.4,167.7,54.9,124.7,134.4c-1.2,2.2-3.3,4.9-4.9,8.6
								c-2.2,5.2-2.1,11,1.8,15.1c2.6,2.7,6.2,5.9,11.1,9.3c13.5,9.3,22,33.8,8.3,38.6c-26.7,9.4-45.4-40.7-54.7-33.7
								c-9.3,7,17,27.2,2,37.3c-15,10.1-21.4-18.2-21.4-18.2s-22.7,24.1-29.7,27.7c0,0,5.9,9.1-1.3,14.3c-7.3,5.2-11.3-6.9-14.4-5.1
								c-3,1.8-13.9,17.5,21.8,52.4c3.2,3.2,5.6,7.2,6.4,11.6c1.1,5.9-0.1,13.5-10.1,19.1c-18.7,10.4-38.9-54.5-44.6-56.8
								c-5.7-2.3-123.6-22.4-109.4-149.6L292.9,129.4z"/>
						</g>
						<g>
							<path class="st12" d="M298.5,322.4c28.5-12.1,52.3-33,71-57.8c15.4-20.4,26.5-43,34.9-67c7.8-22.2,14.8-45,19.1-68.2
								c1.8-9.8,3.3-19.9,2.9-29.9c-24.7-13.3-53.9-19.5-79.5-15.7c-43.7,6.4-53.9,45.6-53.9,45.6l-60.5,59.5
								C223.7,266.5,264.2,304.2,298.5,322.4z"/>
						</g>
						<path class="st2" d="M376.7,398.1c-12-3.8-21-25.9-28.8-42.5c-2.4-5.2-5.2-10.9-6.8-13.4c-0.4-0.6-1-1-1.7-1.2
							c-0.4-0.1-1-0.3-1.5-0.4c-10-2.6-40.3-10.5-66.6-32.8c-33.5-28.4-47.6-68.5-42-119.3l0.1-1.1l60.2-59.2
							c0.3-0.3,0.6-0.7,0.7-1.2c2.5-7.5,15.8-40.4,55.9-46.4c44.9-6.6,98.1,15.9,123.6,52.4c18.5,26.5,20,57.1,4.2,86.4
							c-0.5,0.8-1,1.7-1.6,2.6c-1,1.6-2.2,3.5-3.2,5.7c-0.9,2.2-2.7,7.8,1.2,11.8c3,3.1,6.5,6.1,10.6,8.9
							c10.3,7.1,17.8,22.1,16.4,32.7c-0.7,5.5-3.9,9.5-8.8,11.3c-18,6.3-32.2-10.7-42.5-23.2c-3.2-3.9-10-12-11.4-11
							c-2,1.5-0.2,5.5,2.8,11.3c4.1,8,9.6,19-1,26.1c-5.2,3.5-9.4,3-12.1,1.9c-5.1-2-8.6-7.5-10.8-12.5c-0.9-1.9-3.4-2.4-4.9-0.9
							c-5.7,5.8-13.8,13.8-19.4,18.3c-0.9,0.8-1.4,2-1,3.2c1.3,4.4,1.2,10-4.2,13.8c-6.6,4.7-11.7-0.6-14.1-3.1
							c-0.3-0.3-0.8-0.8-1.1-1.1c-0.6,0.9-1.5,2.6-1.7,5.2c-0.5,6,2,19.4,24.8,41.7c3.8,3.8,6.3,8.3,7.2,13.2
							c1.7,9.3-2.1,17.8-11.6,22.3C384.2,399.6,378,398.5,376.7,398.1z M236,189.5c-0.5,0.5-0.8,1.2-0.9,1.9
							c-9.9,98.5,61,132.1,104.4,143.4c2,0.5,2.8,0.7,3.4,1c2.7,1.1,4.8,5.3,10.5,17.3c5,10.5,11.8,24.9,18.7,33.4
							c7.8,9.5,23.5,2.7,21.4-9.5c0-0.1,0-0.1,0-0.2c-0.7-3.7-2.6-7.1-5.5-10c-23.9-23.3-27.6-38.5-26.5-47.2
							c0.7-5.4,3.3-8.7,5.3-9.9c3.2-1.9,6,0.9,7.8,2.8c3.3,3.4,5.2,3.7,7.1,2.6c5-2.9,0.3-9.7-0.2-10.4l0,0c-1-1.5-0.4-3.5,1.1-4.3
							l0,0c5.3-2.8,22.6-20.5,28.9-27.1l0,0c1.7-1.8,4.6-1,5.1,1.4l0,0c0.9,4.1,4.6,15.4,10.3,17.6c1.9,0.8,4.1,0.3,6.5-1.3
							c5.7-3.9,3.4-9.5-1-18.4c-3.4-6.7-7.2-14.3-1-18.9c6-4.5,12.3,3.1,19.7,11.9c9.7,11.7,21.8,26.3,35.9,21.3
							c2.8-1,4.4-3.1,4.8-6.4c1.1-8.3-5.5-21.1-13.8-26.9c-4.4-3.1-8.3-6.3-11.5-9.7c-4.4-4.6-5.3-11.4-2.4-18.3
							c1.1-2.7,2.5-4.9,3.6-6.6c0.5-0.9,1-1.6,1.4-2.2c18.8-34.8,8.3-62.8-3.8-80.1c-23.9-34.2-75.7-56.1-117.8-49.9
							c-41.2,6.1-51.4,43.1-51.5,43.4l-0.2,0.8L236,189.5z"/>
						<g>
							<path class="st13" d="M380.3,192c7.9,2.5,16.4,1.8,23.6-2.2c0.1-0.1,0.2-0.1,0.3-0.2c11.3-6.5,23.3,10.1,9.3,21.2
								c-13.9,11.1-36.1,10.9-46.6,0.2C357.9,201.5,365,187.1,380.3,192z"/>
							<path class="st2" d="M371.4,179.2c0.4,3.5,1.8,6.2,3,6.1c1.2-0.2,1.9-3.1,1.4-6.6c-0.4-3.5-1.8-6.2-3-6.1
								C371.6,172.7,370.9,175.7,371.4,179.2z"/>
							<path class="st2" d="M402.3,175.7c0.4,3.5,1.8,6.2,3,6.1c1.2-0.2,1.9-3.1,1.4-6.6c-0.4-3.5-1.8-6.2-3-6.1
								C402.5,169.2,401.8,172.2,402.3,175.7z"/>
						</g>
						<path class="st14" d="M364.6,367.3c0,0,8.9,14,19.3,10.8c10.4-3.3,9.4,10.4,0,11.5C374.5,390.8,366.1,377.5,364.6,367.3z"/>
						<path class="st14" d="M372.2,305.6c0,0,4.4,8.8,9.1,5.5c0,0,2.1-0.4,1.4,1.5C382,314.6,376.4,318.5,372.2,305.6z"/>
						<path class="st14" d="M420.9,270.8c0,0,2.5,14,9.4,13.7c6.9-0.3,4.2,8.2-2.3,7.3C421.6,291,415.5,275.4,420.9,270.8z"/>
						<path class="st14" d="M454.3,265.6c0,0,13.3,23.5,28.6,21.1c15.3-2.3,3.5-22.4,0-25.9c-3.5-3.5,7.3,15.6-1.3,16.1
							C473.2,277.4,454.3,265.6,454.3,265.6z"/>
					</g>
					<g>
						<g>
							<path class="st15" d="M177.7,92.4c-13.7,31.9-16.8,77.6,32.7,127.2c5.7,5.7,9.4,13.2,10.8,21.2c2.5,15,8.6,39,22.6,45.2
								c7.2,3.2,14.9-3.3,13.6-11c-1.2-6.8-4.9-17.4-14.1-33.5c0,0-4.9-9.3,3.4-11.9c8.3-2.6,7.3,36,21.5,33.2
								c14.3-2.9-3.6-43.8-3.6-43.8s65.8-36.3,97.5-97.8c0,0,0.2,15.9,10.6,11.8c10.4-4.1,6-24.1,6-24.1l0,0
								c8.2-2.6,15.2-8.2,19.5-15.7l0,0c1.2-3,0.9-6.5-1-9.2C384.6,66,333.4,1.9,256,24.4C221.2,34.5,192,59,177.7,92.4z"/>
						</g>
						<g>
							<path class="st16" d="M268.5,154.3c22.3-19.3,39.2-43.7,47.8-72.1c4.7-15.6,7-32,6.7-48.3c0-2.9-0.2-5.7-0.5-8.6
								c-19.2-6.4-41.5-8.2-66.6-1c-34.8,10.1-64,34.7-78.3,68c-11.3,26.3-15.4,62.1,11.5,101.8C218.4,187.8,246,173.7,268.5,154.3z
								"/>
						</g>
						<g>
							<path class="st17" d="M198.1,98.3c13.5-0.5,26.9-4.8,38-12.5c11.3-7.8,19.8-19.7,23.4-33c1.8-6.5,2.3-13.3,1.6-20.1
								c-0.3-3.2-0.9-6.4-2.1-9.2c-1,0.3-2,0.5-3,0.8c-34.8,10.1-64,34.7-78.3,68c-0.4,1-0.9,2.1-1.3,3.2
								C183.5,97.7,191.1,98.5,198.1,98.3z"/>
						</g>
						<path class="st2" d="M247.6,289c-1.6,0-3.2-0.3-4.8-1c-14.4-6.4-20.9-29.1-23.9-46.9c-1.3-7.7-4.8-14.6-10.1-19.9
							c-51.3-51.5-46.3-98.9-33.1-129.7l0,0C190,58,219.1,32.7,255.4,22.2C333.5-0.5,385,62.7,398.9,82.5c2.3,3.3,2.8,7.6,1.3,11.4
							l-0.1,0.3c-4.2,7.4-10.9,13.1-18.8,16.1c0.9,5.5,2.3,20.7-7.7,24.7c-4,1.6-6.7,0.7-8.3-0.4c-2.2-1.5-3.5-4-4.3-6.5
							c-29.6,52.4-83.1,85.8-93.5,91.9c3,7.3,12.1,30.9,7,40.7c-1.2,2.4-3.2,3.9-5.8,4.4c-10.1,2-13.7-11-16.6-21.5
							c-1.1-4-3.1-11.4-4.6-11.7c-1.6,0.5-2.6,1.2-3,2.3c-0.9,2.2,0.3,5.4,0.9,6.4c8,14,12.8,25.5,14.3,34.2c0.8,4.5-1,9.1-4.6,11.9
							C252.7,288.2,250.2,289,247.6,289z M288.3,21.9c-10,0-20.6,1.4-31.7,4.6c-35,10.1-63,34.5-76.9,66.7l0,0
							c-12.7,29.5-17.4,75,32.2,124.7c6,6.1,10,13.8,11.4,22.4c2.3,13.7,8.1,37.7,21.3,43.6c2.5,1.1,5.3,0.7,7.5-1
							c2.3-1.8,3.5-4.7,3-7.6c-1.4-8.2-6-19.2-13.8-32.7c-0.3-0.6-3-5.8-1.1-10.3c0.7-1.6,2.2-3.8,5.8-4.9c1.3-0.4,2.5-0.3,3.7,0.3
							c3.3,1.8,4.8,7.4,6.8,14.5c3,11,5.8,19.4,11.3,18.3c1.2-0.2,2.1-0.9,2.7-2c4-7.7-4.4-30.5-7.9-38.7c0,0-0.3-1-0.1-1.8
							c0.2-0.8,1-1.1,1-1.1c0.7-0.4,65.5-36.7,96.6-96.9v0c1.1-2.1,4.2-1.3,4.3,1l0,0c0,2,0.7,7.9,3.4,9.7c0.4,0.2,1.5,1,4.1,0
							c7-2.8,5.7-16.5,4.6-21.5l-0.4-2l2-0.6c7.7-2.4,14.1-7.5,18.1-14.5c0.9-2.3,0.6-4.9-0.8-6.9C383.7,68.7,345.8,21.9,288.3,21.9
							z"/>
						<g>
							<path class="st18" d="M212.5,123c0,11.3,9.2,20.5,20.5,20.5c11.3,0,20.5-9.2,20.5-20.5s-9.2-20.5-20.5-20.5
								C221.6,102.5,212.5,111.7,212.5,123z"/>
							
								<ellipse transform="matrix(0.7071 -0.7071 0.7071 0.7071 -50.4386 182.1341)" class="st18" cx="194.6" cy="152" rx="17.8" ry="17.8"/>
							<path class="st2" d="M195.4,161.2c0,1.7-1.4,3.1-3.1,3.1c-1.7,0-3.1-1.4-3.1-3.1s1.4-3.1,3.1-3.1
								C194,158.1,195.4,159.5,195.4,161.2z"/>
							<path class="st2" d="M229.8,132.6c0,1.7-1.4,3.1-3.1,3.1c-1.7,0-3.1-1.4-3.1-3.1c0-1.7,1.4-3.1,3.1-3.1
								C228.4,129.5,229.8,130.9,229.8,132.6z"/>
							<g>
								<defs>
									<path id="SVGID_3_" d="M252.7,177.7c-9.4,0.3-18,4.6-23.7,12.2c-0.1,0.1-0.2,0.2-0.3,0.4c-8.9,12.1-29-2.1-19.4-20.5
										c9.5-18.4,32.8-27.3,48.7-19.2C271.9,157.6,270.9,177,252.7,177.7z"/>
								</defs>
								<clipPath id="SVGID_4_">
									<use xlink:href="#SVGID_3_"  style="overflow:visible;"/>
								</clipPath>
								<path class="st19" d="M252.7,177.7c-9.4,0.3-18,4.6-23.7,12.2c-0.1,0.1-0.2,0.2-0.3,0.4c-8.9,12.1-29-2.1-19.4-20.5
									c9.5-18.4,32.8-27.3,48.7-19.2C271.9,157.6,270.9,177,252.7,177.7z"/>
								<path class="st20" d="M225.9,193c0,0-22.2-18.4,5.8-23.2c0,0,21.8-28.1,27.3,6.8L225.9,193z"/>
								<path class="st21" d="M253.6,162c0.5,1.3,0.8,2.6,0.9,4c0.2,2.7,0.4,5.7-2.5,6.9c-2,0.9-4.3,1.2-6.3,2
									c-3.1,1.2-6.3,2.3-9.2,4.1c-4.3,2.7-9.2,7.8-12,12.8c0.8,0.8,1.4,1.2,1.4,1.2l33-16.4C257.8,169.1,255.8,164.5,253.6,162z"
									/>
								<use xlink:href="#SVGID_3_"  style="overflow:visible;fill:none;stroke:#263D60;stroke-miterlimit:10;"/>
							</g>
						</g>
						<g>
							<path class="st16" d="M228.1,247.5c0,0,8.5,24.9,18.5,26.3c7,1,7.1,6.6,4.6,8.7c-2.3,1.9-8.6,1.4-13.5-4.7
								C233,271.6,225.7,254,228.1,247.5z"/>
						</g>
						<g>
							<path class="st16" d="M259.6,246.9c0,0,2.9,8.6,7,8.6c4.1,0,3.9,2.2,2.7,3.6c-1.2,1.4-5.7,1.3-7.2-2.3
								C260.5,253.2,259.6,246.9,259.6,246.9z"/>
						</g>
						<path class="st22" d="M366.7,114c0,0,0.8,11.7,5.7,11.2c4.9-0.5,0.5,7.1-3.6,5C364.9,128.1,363.6,116.9,366.7,114z"/>
					</g>
				</g>
			</g>
		</g>
		<g>
			<g>
				<g>
					<g>
						<g>
							<g>
								<defs>
									<path id="SVGID_5_" d="M252.7,177.7c-9.4,0.3-18,4.6-23.7,12.2c-0.1,0.1-0.2,0.2-0.3,0.4c-8.9,12.1-29-2.1-19.4-20.5
										c9.5-18.4,32.8-27.3,48.7-19.2C271.9,157.6,270.9,177,252.7,177.7z"/>
								</defs>
								<clipPath id="SVGID_6_">
									<use xlink:href="#SVGID_5_"  style="overflow:visible;"/>
								</clipPath>
							</g>
						</g>
					</g>
				</g>
			</g>
		</g>
	</g>
</g>
</svg>
