<?xml version="1.0" encoding="utf-8"?>
<!-- Generator: Adobe Illustrator 23.1.0, SVG Export Plug-In . SVG Version: 6.00 Build 0)  -->
<svg version="1.1" id="Capa_1" xmlns="http://www.w3.org/2000/svg" xmlns:xlink="http://www.w3.org/1999/xlink" x="0px" y="0px"
	 viewBox="0 0 300 99" style="enable-background:new 0 0 300 99;" xml:space="preserve">
<style type="text/css">
	.st0{fill:#7671D6;}
</style>
<path class="st0" d="M0.3,99.4L0,75.7V57.3V37.6c0-5,4.1-9.1,9.1-9.1l0,0c5,0,9.1,4.1,9.1,9.1v8c0,6.5,5.3,11.7,11.7,11.7l0,0
	c6.5,0,11.7-5.3,11.7-11.7V20.8c0-8.7,6.8-16.1,15.5-16.3c9-0.2,16.4,7,16.4,16v17.6c0,10.6,8.6,19.3,19.3,19.3l0,0
	c10.6,0,19.3-8.6,19.3-19.3v-3.5c0-4.7,3.6-8.8,8.4-9c5-0.2,9.2,3.8,9.2,8.8V43c0,7.9,6.4,14.3,14.3,14.3h13.2
	c7.9,0,14.3-6.4,14.3-14.3v0c0-8.7,6.8-16.1,15.5-16.3c9-0.2,16.4,7,16.4,16v7.6c0,3.9,3.2,7.1,7.1,7.1l0,0c3.9,0,7.1-3.2,7.1-7.1
	V19.6c0-8.7,6.8-16.1,15.5-16.3c9-0.2,16.4,7,16.4,16v21.8c0,9,7.3,16.2,16.2,16.2l0,0c9,0,16.2-7.3,16.2-16.2V25.5
	c0-4.7,3.6-8.8,8.4-9c5-0.2,9.5,3.5,9.5,8.5v32v31v11.4H0.3z"/>
</svg>
